# xmcd
#
# Track frame offsets:
#	150
#	19676
#	35522
#	47639
#	60011
#	78403
#	90780
#	104219
#	123256
#	141359
#	163790
#	177497
#	197339
#	210525
#	228942
#	244423
#	257573
#	270378
#	281212
#	299896
#
# Disc length: 4230 seconds
#
# Revision: 4
# Processed by: cddbd v1.5.2PL0 Copyright (c) Steve Scherf et al.
# Submitted via: audiograbber 1.83.01
#
DISCID=1f108414
DTITLE=Various Artist - The Heart Of Country [CD2]
DYEAR=1900
DGENRE=Country
TTITLE0=Elvis Presley - Funny How Time Slips Away (Live)
TTITLE1=Willie Nelson - Always On My Mind
TTITLE2=Tammy Wynette - Stand By Your Man
TTITLE3=Nilsson - Everybody's Talking
TTITLE4=Kris Kristofferson - Me and Bobby McGee
TTITLE5=Billie Jo Spears - What I've Got In Mind
TTITLE6=Spiders and SnakesJim Stafford - Jim Stafford
TTITLE7=Bobbie Gentry - Ode To Billy Joe
TTITLE8=Steve Earle - I Ain't Ever Satisfied
TTITLE9=Lucinda Williams - Those Three Days
TTITLE10=Patti Loveless - Here I Am
TTITLE11=John Michael Montgomery - I Swear
TTITLE12=Crystal Gayle - Talking In Your Sleep
TTITLE13=Trisha Yearwood - She's In Love With The Boy
TTITLE14=Jo Dee Massina - Heads Carolina, Tails California
TTITLE15=Charlie Rich - Behind Closed Doors
TTITLE16=Lynn Anderson - Rose Garden
TTITLE17=Jim Reeves - He'll Have To Go
TTITLE18=LeAnn Rimes - How Do I Live
TTITLE19=Kenny Rogers and Sheena Easton - We've Got Tonight
EXTD=
EXTT0=
EXTT1=
EXTT2=
EXTT3=
EXTT4=
EXTT5=
EXTT6=
EXTT7=
EXTT8=
EXTT9=
EXTT10=
EXTT11=
EXTT12=
EXTT13=
EXTT14=
EXTT15=
EXTT16=
EXTT17=
EXTT18=
EXTT19=
PLAYORDER=
